<?xml version="1.0" encoding="UTF-8" standalone="no"?>
<svg
   xmlns:dc="http://purl.org/dc/elements/1.1/"
   xmlns:cc="http://creativecommons.org/ns#"
   xmlns:rdf="http://www.w3.org/1999/02/22-rdf-syntax-ns#"
   xmlns:svg="http://www.w3.org/2000/svg"
   xmlns="http://www.w3.org/2000/svg"
   xmlns:sodipodi="http://sodipodi.sourceforge.net/DTD/sodipodi-0.dtd"
   xmlns:inkscape="http://www.inkscape.org/namespaces/inkscape"
   preserveAspectRatio="xMidYMid"
   width="150"
   height="150"
   viewBox="0 0 150 150"
   id="svg2"
   version="1.1"
   inkscape:version="0.48.4 r9939"
   sodipodi:docname="Logo_Medium2.svg"
   inkscape:export-filename="D:\Mindmap\assets\ImageResizer\ImageResizer\Logo_Medium2.png"
   inkscape:export-xdpi="900"
   inkscape:export-ydpi="900">
  <metadata
     id="metadata22">
    <rdf:RDF>
      <cc:Work
         rdf:about="">
        <dc:format>image/svg+xml</dc:format>
        <dc:type
           rdf:resource="http://purl.org/dc/dcmitype/StillImage" />
        <dc:title />
      </cc:Work>
    </rdf:RDF>
  </metadata>
  <sodipodi:namedview
     pagecolor="#2b69ce"
     bordercolor="#666666"
     borderopacity="1"
     objecttolerance="10"
     gridtolerance="10"
     guidetolerance="10"
     inkscape:pageopacity="1"
     inkscape:pageshadow="2"
     inkscape:window-width="1920"
     inkscape:window-height="1017"
     id="namedview20"
     showgrid="false"
     inkscape:zoom="1.8101934"
     inkscape:cx="330.67607"
     inkscape:cy="-39.802644"
     inkscape:window-x="1912"
     inkscape:window-y="-8"
     inkscape:window-maximized="1"
     inkscape:current-layer="svg2" />
  <defs
     id="defs4">
    <style
       id="style6">
      .cls-1 {
        fill: #00abeb;
      }

      .cls-1, .cls-3 {
        fill-rule: evenodd;
      }

      .cls-2, .cls-3 {
        fill: #fff;
      }
    </style>
  </defs>
  <path
     style="fill:#ffffff;fill-rule:evenodd"
     d="m 87.98202,40 0,3.189656 C 86.18015,41.961378 79.355014,40.056034 75.343146,40.538791 l 2.001622,6.810347 -4.895419,0 C 58.394437,47.358786 47,58.00663 47,71.131464 c 0,7.584472 6.229817,14.346122 12.158501,18.696118 l 0,15.075438 22.338232,5.09698 0,-9.53663 c 0,0 4.801815,0.65948 6.416669,0.7543 5.533384,0.3231 10.774514,-3.376026 10.774514,-8.556026 l 0,-6.648712 2.161754,-0.75432 C 102.20136,84.633792 103,84.40646 103,83.35128 c -0.002,-0.267932 -0.13702,-0.529466 -0.2402,-0.754292 l -4.758169,-9.49354 c 0,0 -1.352229,-6.853448 -1.852929,-8.836212 -0.199863,-0.803103 -0.457886,-1.600082 -0.777784,-2.381451 3.406845,-1.721737 5.718952,-5.085105 5.718952,-8.954742 C 101.08987,47.312415 94.005146,40 87.98202,40 z M 77.379083,52.068965 c 2.021434,0 3.660132,1.543839 3.660132,3.448276 0,1.904435 -1.638698,3.448274 -3.660132,3.448274 -0.0036,0 -0.0071,0 -0.01062,0 l -0.766337,7.133621 c 2.568367,0.721742 4.437912,2.970716 4.437912,5.62499 0,3.237542 -2.78579,5.862094 -6.222225,5.862094 -3.436443,0 -6.222223,-2.624552 -6.222223,-5.862094 0,-1.424738 0.532703,-2.734102 1.429738,-3.749984 l -2.184642,-1.99353 c -1.318385,1.207108 -3.117675,1.950424 -5.101308,1.950424 -0.509232,0 -1.007003,-0.0469 -1.486925,-0.14 l -1.029413,4.256462 c 2.107519,0.722554 3.614379,2.6138 3.614379,4.849138 0,2.856644 -2.458046,5.172412 -5.490197,5.172412 -3.03216,0 -5.490195,-2.315768 -5.490195,-5.172412 0,-2.856644 2.458036,-5.172412 5.490195,-5.172412 0.15093,0 0.298258,0.0112 0.446076,0.02156 l 1.052288,-4.375 c -2.602261,-1.057378 -4.426507,-3.496696 -4.426507,-6.336213 0,-3.808852 3.277394,-6.896552 7.32026,-6.896552 4.042864,0 7.320262,3.0877 7.320262,6.896552 0,1.442282 -0.466124,2.783111 -1.269607,3.890091 l 2.310455,2.112068 c 1.038599,-0.732592 2.320048,-1.174586 3.717326,-1.174586 0.115127,0 0.229533,0.01512 0.343126,0.02156 l 0.766346,-7.198273 c -1.301314,-0.52865 -2.207625,-1.748279 -2.207625,-3.168105 0,-1.904434 1.638693,-3.448276 3.660131,-3.448276 z"
     id="path8"
     inkscape:connector-curvature="0" />
</svg>
