<?xml version="1.0" encoding="UTF-8" standalone="no"?>
<svg
   xmlns:dc="http://purl.org/dc/elements/1.1/"
   xmlns:cc="http://creativecommons.org/ns#"
   xmlns:rdf="http://www.w3.org/1999/02/22-rdf-syntax-ns#"
   xmlns:svg="http://www.w3.org/2000/svg"
   xmlns="http://www.w3.org/2000/svg"
   xmlns:sodipodi="http://sodipodi.sourceforge.net/DTD/sodipodi-0.dtd"
   xmlns:inkscape="http://www.inkscape.org/namespaces/inkscape"
   preserveAspectRatio="xMidYMid"
   width="50"
   height="50"
   viewBox="0 0 50 50"
   id="svg2"
   version="1.1"
   inkscape:version="0.48.4 r9939"
   sodipodi:docname="Logo_AppList2.svg">
  <metadata
     id="metadata22">
    <rdf:RDF>
      <cc:Work
         rdf:about="">
        <dc:format>image/svg+xml</dc:format>
        <dc:type
           rdf:resource="http://purl.org/dc/dcmitype/StillImage" />
      </cc:Work>
    </rdf:RDF>
  </metadata>
  <sodipodi:namedview
     pagecolor="#ffffff"
     bordercolor="#666666"
     borderopacity="1"
     objecttolerance="10"
     gridtolerance="10"
     guidetolerance="10"
     inkscape:pageopacity="0"
     inkscape:pageshadow="2"
     inkscape:window-width="1920"
     inkscape:window-height="1017"
     id="namedview20"
     showgrid="false"
     inkscape:zoom="7.2407734"
     inkscape:cx="22.306949"
     inkscape:cy="8.2431768"
     inkscape:window-x="1912"
     inkscape:window-y="-8"
     inkscape:window-maximized="1"
     inkscape:current-layer="svg2" />
  <defs
     id="defs4">
    <style
       id="style6">
      .cls-1 {
        fill: #00abeb;
      }

      .cls-1, .cls-3 {
        fill-rule: evenodd;
      }

      .cls-2, .cls-3 {
        fill: #fff;
      }
    </style>
  </defs>
  <path
     style="fill:#00abeb;fill-rule:evenodd"
     d="m 31.954657,5 0,1.82266 C 30.989363,6.120787 27.333039,5.032019 25.183824,5.307881 l 1.072304,3.891626 -2.622549,0 C 16.104167,9.204977 10,15.289507 10,22.789408 c 0,4.333991 3.337402,8.197784 6.51348,10.683498 l 0,8.614532 L 28.480392,45 l 0,-5.449507 c 0,0 2.572402,0.376847 3.4375,0.431033 2.964315,0.184631 5.772059,-1.929162 5.772059,-4.889162 l 0,-3.799261 1.158089,-0.431035 C 39.572157,30.505024 40,30.375123 40,29.772167 39.99902,29.619064 39.92661,29.469605 39.871323,29.341133 l -2.549019,-5.424877 c 0,0 -0.724412,-3.916256 -0.992647,-5.049261 -0.107059,-0.458917 -0.245295,-0.914335 -0.416666,-1.360838 1.825097,-0.983842 3.063725,-2.905763 3.063725,-5.116995 C 38.976716,9.178522 35.181323,5 31.954657,5 z m -5.680147,6.896552 c 1.082912,0 1.960784,0.882197 1.960784,1.970443 0,1.088246 -0.877872,1.970443 -1.960784,1.970443 -0.0021,0 -0.0041,0 -0.0061,0 l -0.41054,4.076355 c 1.375914,0.412422 2.377452,1.697543 2.377452,3.214285 0,1.850019 -1.492384,3.349755 -3.333333,3.349755 -1.840949,0 -3.333334,-1.499736 -3.333334,-3.349755 0,-0.814141 0.285375,-1.562353 0.765931,-2.142857 l -1.170342,-1.139162 c -0.706273,0.689783 -1.67018,1.114532 -2.732843,1.114532 -0.272803,0 -0.539467,-0.02677 -0.796569,-0.08005 l -0.55147,2.432266 c 1.129029,0.412886 1.936274,1.4936 1.936274,2.770937 0,1.632369 -1.316809,2.955664 -2.941176,2.955664 -1.624367,0 -2.941177,-1.323295 -2.941177,-2.955664 0,-1.632369 1.31681,-2.955666 2.941177,-2.955666 0.08084,0 0.159781,0.0059 0.238971,0.01232 l 0.563725,-2.5 c -1.39405,-0.604213 -2.371323,-1.998105 -2.371323,-3.62069 0,-2.17649 1.755746,-3.940887 3.921568,-3.940887 2.165821,0 3.921568,1.764397 3.921568,3.940887 0,0.824158 -0.24971,1.590349 -0.680147,2.222906 l 1.237745,1.206897 c 0.556394,-0.418627 1.242883,-0.671183 1.991422,-0.671183 0.06169,0 0.122966,0.0089 0.183823,0.01232 l 0.410539,-4.1133 c -0.69707,-0.302087 -1.182598,-0.999019 -1.182598,-1.810345 0,-1.088247 0.877873,-1.970443 1.960785,-1.970443 z"
     id="path8"
     inkscape:connector-curvature="0" />
</svg>
