<?xml version="1.0" encoding="UTF-8" standalone="no"?>
<svg
   xmlns:dc="http://purl.org/dc/elements/1.1/"
   xmlns:cc="http://creativecommons.org/ns#"
   xmlns:rdf="http://www.w3.org/1999/02/22-rdf-syntax-ns#"
   xmlns:svg="http://www.w3.org/2000/svg"
   xmlns="http://www.w3.org/2000/svg"
   xmlns:sodipodi="http://sodipodi.sourceforge.net/DTD/sodipodi-0.dtd"
   xmlns:inkscape="http://www.inkscape.org/namespaces/inkscape"
   preserveAspectRatio="xMidYMid"
   width="310"
   height="150"
   viewBox="0 0 310 150"
   id="svg2"
   version="1.1"
   inkscape:version="0.48.4 r9939"
   sodipodi:docname="Logo_Wide2.svg"
   inkscape:export-filename="D:\Mindmap\assets\ImageResizer\ImageResizer\Logo_Wide2.png"
   inkscape:export-xdpi="900"
   inkscape:export-ydpi="900">
  <metadata
     id="metadata22">
    <rdf:RDF>
      <cc:Work
         rdf:about="">
        <dc:format>image/svg+xml</dc:format>
        <dc:type
           rdf:resource="http://purl.org/dc/dcmitype/StillImage" />
        <dc:title></dc:title>
      </cc:Work>
    </rdf:RDF>
  </metadata>
  <sodipodi:namedview
     pagecolor="#2b69ce"
     bordercolor="#666666"
     borderopacity="1"
     objecttolerance="10"
     gridtolerance="10"
     guidetolerance="10"
     inkscape:pageopacity="1"
     inkscape:pageshadow="2"
     inkscape:window-width="1920"
     inkscape:window-height="1017"
     id="namedview20"
     showgrid="false"
     inkscape:zoom="1.8101934"
     inkscape:cx="330.67607"
     inkscape:cy="-39.802644"
     inkscape:window-x="1912"
     inkscape:window-y="-8"
     inkscape:window-maximized="1"
     inkscape:current-layer="svg2" />
  <defs
     id="defs4">
    <style
       id="style6">
      .cls-1 {
        fill: #00abeb;
      }

      .cls-1, .cls-3 {
        fill-rule: evenodd;
      }

      .cls-2, .cls-3 {
        fill: #fff;
      }
    </style>
  </defs>
  <path
     style="fill:#ffffff;fill-rule:evenodd"
     d="m 167.98202,40 0,3.189656 c -1.80187,-1.228278 -8.62701,-3.133622 -12.63887,-2.650865 l 2.00162,6.810347 -4.89542,0 C 138.39444,47.358786 127,58.00663 127,71.131464 c 0,7.584472 6.22982,14.346122 12.1585,18.696118 l 0,15.075438 22.33823,5.09698 0,-9.53663 c 0,0 4.80182,0.65948 6.41667,0.7543 5.53339,0.3231 10.77452,-3.376026 10.77452,-8.556026 l 0,-6.648712 2.16175,-0.75432 C 182.20136,84.633792 183,84.40646 183,83.35128 c -0.002,-0.267932 -0.13702,-0.529466 -0.2402,-0.754292 l -4.75817,-9.49354 c 0,0 -1.35223,-6.853448 -1.85293,-8.836212 -0.19986,-0.803103 -0.45788,-1.600082 -0.77778,-2.381451 3.40684,-1.721737 5.71895,-5.085105 5.71895,-8.954742 C 181.08987,47.312415 174.00515,40 167.98202,40 z m -10.60294,12.068965 c 2.02144,0 3.66014,1.543839 3.66014,3.448276 0,1.904435 -1.6387,3.448274 -3.66014,3.448274 -0.004,0 -0.007,0 -0.0106,0 l -0.76633,7.133621 c 2.56836,0.721742 4.43791,2.970716 4.43791,5.62499 0,3.237542 -2.78579,5.862094 -6.22223,5.862094 -3.43644,0 -6.22222,-2.624552 -6.22222,-5.862094 0,-1.424738 0.5327,-2.734102 1.42974,-3.749984 l -2.18464,-1.99353 c -1.31839,1.207108 -3.11768,1.950424 -5.10131,1.950424 -0.50923,0 -1.00701,-0.0469 -1.48693,-0.14 l -1.02941,4.256462 c 2.10752,0.722554 3.61438,2.6138 3.61438,4.849138 0,2.856644 -2.45805,5.172412 -5.4902,5.172412 -3.03216,0 -5.49019,-2.315768 -5.49019,-5.172412 0,-2.856644 2.45803,-5.172412 5.49019,-5.172412 0.15093,0 0.29826,0.0112 0.44608,0.02156 l 1.05229,-4.375 c -2.60227,-1.057378 -4.42651,-3.496696 -4.42651,-6.336213 0,-3.808852 3.27739,-6.896552 7.32026,-6.896552 4.04286,0 7.32026,3.0877 7.32026,6.896552 0,1.442282 -0.46612,2.783111 -1.26961,3.890091 l 2.31046,2.112068 c 1.0386,-0.732592 2.32005,-1.174586 3.71732,-1.174586 0.11513,0 0.22954,0.01512 0.34313,0.02156 l 0.76635,-7.198273 c -1.30132,-0.52865 -2.20763,-1.748279 -2.20763,-3.168105 0,-1.904434 1.63869,-3.448276 3.66013,-3.448276 z"
     id="path8"
     inkscape:connector-curvature="0" />
</svg>
