<?xml version="1.0" encoding="UTF-8" standalone="no"?>
<!-- Created with Inkscape (http://www.inkscape.org/) -->

<svg
   xmlns:dc="http://purl.org/dc/elements/1.1/"
   xmlns:cc="http://creativecommons.org/ns#"
   xmlns:rdf="http://www.w3.org/1999/02/22-rdf-syntax-ns#"
   xmlns:svg="http://www.w3.org/2000/svg"
   xmlns="http://www.w3.org/2000/svg"
   xmlns:sodipodi="http://sodipodi.sourceforge.net/DTD/sodipodi-0.dtd"
   xmlns:inkscape="http://www.inkscape.org/namespaces/inkscape"
   width="1240"
   height="600"
   id="svg2"
   version="1.1"
   inkscape:version="0.48.4 r9939"
   inkscape:export-filename="C:\Users\Sebastian\Desktop\Logo_SplashScreen.png"
   inkscape:export-xdpi="450"
   inkscape:export-ydpi="450"
   sodipodi:docname="SplashScreen.svg">
  <defs
     id="defs4" />
  <sodipodi:namedview
     id="base"
     pagecolor="#ffffff"
     bordercolor="#666666"
     borderopacity="1.0"
     inkscape:pageopacity="0.0"
     inkscape:pageshadow="2"
     inkscape:zoom="0.7"
     inkscape:cx="948.10607"
     inkscape:cy="163.1102"
     inkscape:document-units="px"
     inkscape:current-layer="layer1"
     showgrid="false"
     showguides="true"
     inkscape:guide-bbox="true"
     inkscape:window-width="1920"
     inkscape:window-height="1017"
     inkscape:window-x="1912"
     inkscape:window-y="-8"
     inkscape:window-maximized="1" />
  <metadata
     id="metadata7">
    <rdf:RDF>
      <cc:Work
         rdf:about="">
        <dc:format>image/svg+xml</dc:format>
        <dc:type
           rdf:resource="http://purl.org/dc/dcmitype/StillImage" />
        <dc:title></dc:title>
      </cc:Work>
    </rdf:RDF>
  </metadata>
  <g
     inkscape:label="Layer 1"
     inkscape:groupmode="layer"
     id="layer1"
     transform="translate(0,-452.36218)">
    <path
       id="rect2985-1-7"
       style="fill:none;stroke:#ffffff;stroke-width:31.49384689;stroke-linecap:butt;stroke-linejoin:miter;stroke-miterlimit:4;stroke-opacity:1;stroke-dasharray:none;stroke-dashoffset:0"
       d="m 421.53334,568.1091 152.37253,0 c 17.05572,0 30.78644,13.41026 30.78644,30.06785 l 0,94.1255 c 0,16.65756 -13.73072,30.06786 -30.78644,30.06786 l -152.37253,0 c -17.0557,0 -30.78642,-13.4103 -30.78642,-30.06786 l 0,-94.1255 c 0,-16.65759 13.73072,-30.06785 30.78642,-30.06785 z m 242.98705,292.03194 -111.9953,0 c 0,0 -54.79776,3.90646 -55.99768,-54.69067 l 0,-76.56722 m 199.56666,53.47092 152.37255,0 c 17.05572,0 30.78644,13.4103 30.78644,30.06786 l 0,94.12549 c 0,16.6576 -13.73072,30.06784 -30.78644,30.06784 l -152.37255,0 c -17.05568,0 -30.7864,-13.41024 -30.7864,-30.06784 l 0,-94.12549 c 0,-16.65756 13.73072,-30.06786 30.7864,-30.06786 z"
       inkscape:export-filename="C:\Users\Sebastian\Desktop\Logo.png"
       inkscape:export-xdpi="392.85001"
       inkscape:export-ydpi="392.85001"
       inkscape:connector-curvature="0" />
  </g>
</svg>
