<?xml version="1.0" encoding="UTF-8" standalone="no"?>
<!-- Created with Inkscape (http://www.inkscape.org/) -->

<svg
   xmlns:dc="http://purl.org/dc/elements/1.1/"
   xmlns:cc="http://creativecommons.org/ns#"
   xmlns:rdf="http://www.w3.org/1999/02/22-rdf-syntax-ns#"
   xmlns:svg="http://www.w3.org/2000/svg"
   xmlns="http://www.w3.org/2000/svg"
   xmlns:sodipodi="http://sodipodi.sourceforge.net/DTD/sodipodi-0.dtd"
   xmlns:inkscape="http://www.inkscape.org/namespaces/inkscape"
   width="600"
   height="600"
   id="svg2"
   version="1.1"
   inkscape:version="0.48.4 r9939"
   inkscape:export-filename="C:\Users\Sebastian\Desktop\Logo_Medium.png"
   inkscape:export-xdpi="180"
   inkscape:export-ydpi="180"
   sodipodi:docname="Logo_Medium.svg">
  <defs
     id="defs4" />
  <sodipodi:namedview
     id="base"
     pagecolor="#ffffff"
     bordercolor="#666666"
     borderopacity="1.0"
     inkscape:pageopacity="0.0"
     inkscape:pageshadow="2"
     inkscape:zoom="0.98994949"
     inkscape:cx="-152.90225"
     inkscape:cy="320.38276"
     inkscape:document-units="px"
     inkscape:current-layer="layer1"
     showgrid="false"
     showguides="true"
     inkscape:guide-bbox="true"
     inkscape:window-width="1920"
     inkscape:window-height="1017"
     inkscape:window-x="1912"
     inkscape:window-y="-8"
     inkscape:window-maximized="1" />
  <metadata
     id="metadata7">
    <rdf:RDF>
      <cc:Work
         rdf:about="">
        <dc:format>image/svg+xml</dc:format>
        <dc:type
           rdf:resource="http://purl.org/dc/dcmitype/StillImage" />
        <dc:title />
      </cc:Work>
    </rdf:RDF>
  </metadata>
  <g
     inkscape:label="Layer 1"
     inkscape:groupmode="layer"
     id="layer1"
     transform="translate(0,-452.36218)">
    <path
       id="rect2985-1-7"
       style="fill:none;stroke:#ffffff;stroke-width:15.74692248999999900;stroke-linecap:butt;stroke-linejoin:miter;stroke-miterlimit:4;stroke-opacity:1;stroke-dasharray:none;stroke-dashoffset:0"
       d="m 203.26667,660.23565 76.18626,0 c 8.52786,0 15.39322,6.70513 15.39322,15.03392 l 0,47.06275 c 0,8.32878 -6.86536,15.03393 -15.39322,15.03393 l -76.18626,0 c -8.52785,0 -15.39321,-6.70515 -15.39321,-15.03393 l 0,-47.06275 c 0,-8.32879 6.86536,-15.03392 15.39321,-15.03392 z m 121.49352,146.01596 -55.99765,0 c 0,0 -27.39888,1.95323 -27.99884,-27.34533 l 0,-38.28361 m 99.78333,26.73546 76.18627,0 c 8.52786,0 15.39322,6.70515 15.39322,15.03393 l 0,47.06274 c 0,8.3288 -6.86536,15.03392 -15.39322,15.03392 l -76.18627,0 c -8.52784,0 -15.3932,-6.70512 -15.3932,-15.03392 l 0,-47.06274 c 0,-8.32878 6.86536,-15.03393 15.3932,-15.03393 z"
       inkscape:export-filename="C:\Users\Sebastian\Desktop\Logo.png"
       inkscape:export-xdpi="392.85001"
       inkscape:export-ydpi="392.85001"
       inkscape:connector-curvature="0" />
  </g>
</svg>
